<svg xmlns="http://www.w3.org/2000/svg" viewBox="-30 205 1640 1830" role="img" aria-labelledby="title desc">
  <title id="title">Sigra C1 stacked lockup (dark)</title>
  <desc id="desc">Font: Plus Jakarta Sans v2.7 ExtraBold (OFL) wght=800. C1 stacked wordmark: si over gra, tightly tracked, with the Rail Accent mark set into the first line negative space as glyph-scale rail columns. Outlined with opentype.js 2.0.0. Generated 2026-06-12.</desc>
  <g id="line-1" fill="#f4f1eb">
    <path id="g-0" d="M269 1012Q179 1012 112.50 969.50Q46 927 22 855L132 803Q153 847 189 872Q225 897 269 897Q335 897 335 848Q335 815 281 800L188 774Q121 755 85 712.50Q49 670 49 612Q49 561 75 523Q101 485 148 463.50Q195 442 256 442Q336 442 396.50 479.50Q457 517 482 585L371 637Q359 603 327.50 582.50Q296 562 256 562Q227 562 210.50 574Q194 586 194 607Q194 639 253 656L340 682Q408 702 444 742.50Q480 783 480 842Q480 918 422 965Q364 1012 269 1012" />
    <path id="g-1" transform="translate(-25 0)" d="M720 405L570 405L570 255L720 255L720 405M720 1000L570 1000L570 454L720 454" />
  </g>
  <g id="mark" transform="translate(692 407) scale(10)" fill="none" stroke-linecap="round">
    <path d="M17 14v14M32 23v18M47 36v14" stroke="#fdba74" stroke-width="8" />
    <path d="M17 36v14M47 14v14" stroke="#c2410c" stroke-width="8" />
    <path d="M17 32h30" stroke="#9a3412" stroke-width="4" />
  </g>
  <g id="line-2" fill="#f4f1eb" transform="translate(-786 758)">
    <path id="g-2" d="M1098 1220Q1035 1220 981 1199Q927 1178 888.50 1140.50Q850 1103 833 1052L972 1003Q983 1041 1017 1063Q1051 1085 1098 1085Q1154 1085 1186 1054.50Q1218 1024 1218 971L1218 919Q1164 973 1072 973Q996 973 936 938.50Q876 904 842 843.50Q808 783 808 706Q808 629 842 569.50Q876 510 935 476Q994 442 1069 442Q1170 442 1228 511L1228 454L1368 454L1368 971Q1368 1043 1333 1099.50Q1298 1156 1237.50 1188Q1177 1220 1098 1220M1093 837Q1149 837 1183.50 801.50Q1218 766 1218 708Q1218 649 1183.50 613Q1149 577 1093 577Q1036 577 999.50 613.50Q963 650 963 708Q963 765 999.50 801Q1036 837 1093 837" />
    <path id="g-3" transform="translate(-25 0)" d="M1628 1000L1478 1000L1478 454L1618 454L1618 536Q1639 485 1677.50 466.50Q1716 448 1766 448L1798 448L1798 578L1751 578Q1696 578 1662 611.50Q1628 645 1628 706" />
    <path id="g-4" transform="translate(-50 0)" d="M2033 1012Q1945 1012 1893.50 970Q1842 928 1842 854Q1842 785 1890 740Q1938 695 2036 679L2187 655L2187 640Q2187 609 2162.50 588Q2138 567 2096 567Q2056 567 2025.50 589Q1995 611 1981 647L1861 590Q1885 522 1950.50 482Q2016 442 2103 442Q2172 442 2225 467Q2278 492 2307.50 536.50Q2337 581 2337 640L2337 1000L2197 1000L2197 949Q2135 1012 2033 1012M1997 849Q1997 874 2016 888Q2035 902 2063 902Q2119 902 2153 867Q2187 832 2187 782L2187 765L2063 787Q2031 793 2014 807.50Q1997 822 1997 849" />
  </g>
</svg>
